<svg xmlns="http://www.w3.org/2000/svg" viewBox="0 0 498.88 498.88"><defs><style>.cls-1,.cls-5{fill:#fff;}.cls-1,.cls-3,.cls-4,.cls-5{stroke:#231f20;stroke-miterlimit:10;}.cls-2{isolation:isolate;font-size:89.28px;font-family:Bentoga-Thin, Bentoga;font-weight:200;}.cls-2,.cls-6{fill:#231f20;}.cls-3{fill:#f7ec25;}.cls-3,.cls-4{stroke-width:0.25px;}.cls-4{fill:none;}.cls-5{stroke-width:0.1px;}</style></defs><g id="Layer_2" data-name="Layer 2"><g id="Layer_1-2" data-name="Layer 1"><circle class="cls-1" cx="249.44" cy="249.44" r="248.94"/><text class="cls-2" transform="translate(62.33 343.26)">Beatastic</text><path class="cls-3" d="M288.5,149.6c-4.09-24.18-21.5-52.08-49.25-49.85,0,0-41.74-2.08-58,36.68a82.93,82.93,0,0,0,.52,29.39,142.81,142.81,0,0,0,10.64,27.82l19.41,43.52c5.36,12.13,9.3,25.9,19.87,34.6a33.65,33.65,0,0,0,24.63,7.89,46.12,46.12,0,0,0,26.93-14.29,26.51,26.51,0,0,0,5.28-19.71"/><path class="cls-4" d="M230.32,232c-5.65-13-11.68-25.67-17.34-38.54a132.9,132.9,0,0,1-12.87-37.72A39.69,39.69,0,0,1,202,137.77a35.42,35.42,0,0,1,28.5-20.09A41.08,41.08,0,0,1,267.67,142l2.08,13.24c-.37-2.45-13.54,1-14.88,1.56a35.93,35.93,0,0,0,11.46,68"/><path class="cls-5" d="M266.11,158.45a27.22,27.22,0,0,0-20.24,17A32.13,32.13,0,0,0,261.49,217l52.08,32.44c.75.45,4.69-2.6,5.28-3.2A16.73,16.73,0,0,0,321,242.6c.9-1.86,3.05-5.73,1.49-7.44s-44.64-27.9-44.64-28.13c-1.78-1-6.25-2.45-5-5.35.44-1.19,2.82-2.38,3.79-3.28a15.3,15.3,0,0,0,3.87-5.8c5.21-10.42,10-24.48-3.65-30.95a29.32,29.32,0,0,0-7.44-2.75A10,10,0,0,0,266.11,158.45Z"/><ellipse class="cls-6" cx="269.57" cy="173.9" rx="3.87" ry="2.68" transform="translate(-20.78 310.3) rotate(-57.99)"/><path class="cls-4" d="M248.92,184.12a28.29,28.29,0,0,0,1,8.63"/><circle class="cls-6" cx="259.08" cy="207.55" r="0.82"/></g></g></svg>